<svg version="1.1" xmlns="http://www.w3.org/2000/svg" xmlns:xlink="http://www.w3.org/1999/xlink" width="48" height="48"><defs><linearGradient x1="14.22989" y1="15.62562" x2="54.98332" y2="53.58759" gradientUnits="userSpaceOnUse" id="color-1"><stop offset="0" stop-color="#000000" stop-opacity="0.3"></stop><stop offset="1" stop-color="#000000" stop-opacity="0"></stop></linearGradient><filter id="dropshadow-base"><feColorMatrix type="matrix" values="0 0 0 0 0  0 0 0 0 0  0 0 0 0 0  0 0 0 .8 0"></feColorMatrix> <feOffset dx="0" dy="1"></feOffset> <feGaussianBlur stdDeviation="1"></feGaussianBlur> <feComposite in="SourceGraphic"></feComposite></filter><filter id="dropshadow-banner" x="-10%" y="-10%" width="120%" height="130%"><feColorMatrix type="matrix" values="0 0 0 0 0  0 0 0 0 0  0 0 0 0 0  0 0 0 .4 0"></feColorMatrix> <feOffset dx="0" dy="1"></feOffset> <feGaussianBlur stdDeviation="0.5"></feGaussianBlur> <feComposite in="SourceGraphic"></feComposite></filter></defs><g fill="none" fill-rule="nonzero" stroke="none" stroke-width="none" stroke-linecap="butt" stroke-linejoin="miter" stroke-miterlimit="10" stroke-dasharray="" stroke-dashoffset="0" font-family="none" font-weight="none" font-size="none" text-anchor="none" style="mix-blend-mode: normal"><path d="M2,24c0,-12.15026 9.84974,-22 22,-22c12.15026,0 22,9.84974 22,22c0,12.15026 -9.84974,22 -22,22c-12.15026,0 -22,-9.84974 -22,-22z" id="base 1 5" fill="#fbc02d" stroke-width="1"></path><path d="M17.85413,27.62424l-3.62424,-3.62424h2.79146c0,-4.62452 3.74055,-8.37438 8.36973,-8.37438l0.00001,0.00001c2.31516,0 4.41039,0.93794 5.9266,2.45414l13.38393,13.38393c-1.97321,5.47206 -6.05435,9.93692 -11.2634,12.41459l-13.95122,-13.95122c-0.00305,-0.00305 -0.0061,-0.00611 -0.00915,-0.00916l0.30008,-0.30008l-1.85866,-1.85866z" fill="url(#color-1)" stroke-width="1"></path><path d="M25.39108,15.62562c-4.62917,0 -8.36973,3.74986 -8.36973,8.37438h-2.79146l3.62425,3.62425l0.06513,0.13492l3.75451,-3.75917h-2.79146c0,-3.59633 2.91708,-6.51341 6.51341,-6.51341c3.59633,0 6.51341,2.91708 6.51341,6.51341c0,3.59633 -2.91708,6.51341 -6.51341,6.51341c-1.80049,0 -3.42419,-0.73508 -4.60126,-1.91215l-1.31664,1.31664c1.51204,1.51669 3.60098,2.45648 5.91324,2.45648c4.62917,0 8.37903,-3.74986 8.37903,-8.37438c0,-4.62452 -3.74986,-8.37438 -8.37903,-8.37438zM24.46524,20.27805v4.65243l3.98248,2.36344l0.66995,-1.13054l-3.2567,-1.93076v-3.95457z" fill="none" stroke-width="0"></path><path d="M33.77011,24c0,4.62452 -3.74986,8.37438 -8.37903,8.37438c-2.31226,0 -4.4012,-0.93979 -5.91324,-2.45648l1.31664,-1.31664c1.17707,1.17707 2.80076,1.91215 4.60126,1.91215c3.59633,0 6.51341,-2.91708 6.51341,-6.51341c0,-3.59633 -2.91708,-6.51341 -6.51341,-6.51341c-3.59633,0 -6.51341,2.91708 -6.51341,6.51341h2.79146l-3.75451,3.75917l-0.06513,-0.13492l-3.62425,-3.62425h2.79146c0,-4.62452 3.74056,-8.37438 8.36973,-8.37438c4.62917,0 8.37903,3.74986 8.37903,8.37438zM25.86097,20.27805v3.95457l3.2567,1.93076l-0.66995,1.13054l-3.98248,-2.36344v-4.65243z" fill="#ffffff" stroke-width="0"></path><path d="M2,24c0,-12.15026 9.84974,-22 22,-22c12.15026,0 22,9.84974 22,22c0,12.15026 -9.84974,22 -22,22c-12.15026,0 -22,-9.84974 -22,-22z" id="base 1 1 1" fill="none" stroke-width="1"></path><g fill="#000000" stroke-width="1" font-family="Roboto, sans-serif" font-weight="normal" font-size="14" text-anchor="start"></g><rect x="2" y="2" width="44" height="22" fill="none" stroke-width="1"></rect><path d="M2,24v-22h44v22z" fill="none" stroke-width="1"></path><path d="M2,24v-22h44v22z" fill="none" stroke-width="1"></path><path d="M2,24v-22h44v22z" fill="none" stroke-width="1"></path><path d="M2,24v-22h44v22z" fill="none" stroke-width="1"></path></g></svg>